<svg xmlns="http://www.w3.org/2000/svg" width="96" height="96" viewBox="0 0 16 16">
  <title>Christopher Bengtsson — CB monogram</title>
  <!-- A square, opaque tile keeps the mark readable on light and dark chrome.
       Both letters use the same clipped corners and 1.5-unit strokes. -->
  <path fill="#f8f8f8" d="M0 0h16v16H0z"/>
  <path fill="none" stroke="#d7d7d7" stroke-width=".333333" d="M.166667.166667h15.666666v15.666666H.166667z"/>
  <path fill="#181818" d="M7 4H4L2 6v4l2 2h3v-1.5H4.625L3.5 9.375v-2.75L4.625 5.5H7z"/>
  <path fill="#181818" fill-rule="evenodd" d="M8.5 4H12l2 1.5v1.75L13 8l1 .75v1.75L12 12H8.5z M10 5.5v1.75h1.5l1-.75v-.25l-1-.75z M10 8.75v1.75h1.5l1-.75V9.5l-1-.75z"/>
</svg>
